<svg id="Layer_2" data-name="Layer 2" xmlns="http://www.w3.org/2000/svg" xmlns:xlink="http://www.w3.org/1999/xlink" viewBox="0 0 1920 1080"><defs><style>.cls-1{fill:url(#linear-gradient);}.cls-2{opacity:0.6;fill:url(#linear-gradient-2);}.cls-3{opacity:0.32;fill:url(#linear-gradient-3);}.cls-4{opacity:0.28;fill:url(#linear-gradient-4);}.cls-5{fill:url(#linear-gradient-5);}</style><linearGradient id="linear-gradient" x1="58.98" y1="307.76" x2="1897.91" y2="443.09" gradientUnits="userSpaceOnUse"><stop offset="0" stop-color="#6e29ff"/><stop offset="0.24" stop-color="#5a55fe"/><stop offset="0.48" stop-color="#487dfe"/><stop offset="0.49" stop-color="#477ffe"/><stop offset="0.63" stop-color="#37a2fe"/><stop offset="0.77" stop-color="#2bbcfd"/><stop offset="0.9" stop-color="#24ccfd"/><stop offset="1" stop-color="#22d1fd"/></linearGradient><linearGradient id="linear-gradient-2" x1="1404.93" y1="258.72" x2="2189.46" y2="-177.12" gradientUnits="userSpaceOnUse"><stop offset="0" stop-color="#2ac0fd"/><stop offset="0.27" stop-color="#31b1fe"/><stop offset="0.59" stop-color="#35a7fe"/><stop offset="1" stop-color="#36a4fe"/></linearGradient><linearGradient id="linear-gradient-3" x1="457.39" y1="554.1" x2="13.37" y2="500.1" gradientUnits="userSpaceOnUse"><stop offset="0" stop-color="#2ac0fd"/><stop offset="0.12" stop-color="#2fb6fd"/><stop offset="0.34" stop-color="#3b9afe"/><stop offset="0.52" stop-color="#487dfe"/><stop offset="0.76" stop-color="#5a55fe"/><stop offset="1" stop-color="#6e29ff"/></linearGradient><linearGradient id="linear-gradient-4" x1="1883.99" y1="648.8" x2="1268.17" y2="736.77" gradientUnits="userSpaceOnUse"><stop offset="0" stop-color="#22d0fd"/><stop offset="0.16" stop-color="#24cdfd"/><stop offset="0.29" stop-color="#28c2fd"/><stop offset="0.42" stop-color="#31b0fd"/><stop offset="0.54" stop-color="#3c97fe"/><stop offset="0.64" stop-color="#487dfe"/><stop offset="0.82" stop-color="#5a55fe"/><stop offset="1" stop-color="#6e29ff"/></linearGradient><linearGradient id="linear-gradient-5" x1="38.91" y1="679.35" x2="800.04" y2="735.36" xlink:href="#linear-gradient"/></defs><title>web page 2</title><path class="cls-1" d="M1920,0V748.57c-143.08-31.1-317.82-55.29-512.79-70.1-128.14-9.73-265-15.41-407.39-16.32l-15.47-.08c-3.7,0-7.41,0-11.12,0L958,662H942.61l-9.86,0-8.73,0q-8.71,0-17.4.12c-2.9,0-5.8,0-8.69.07l-17.32.19q-8.64.11-17.27.24t-17.2.28q-11.23.2-22.43.44c-111.87,2.41-219.77,7.76-322,15.71C311.29,694,140.47,717.73,0,748.13V0Z"/><path class="cls-2" d="M1920,0V141.17c-34.51,39.76-69.24,79.37-103,119.8-26.74,32-56.68,66.82-100.69,72.42-25.15,3.19-52,1.16-77.34,1.57l-249,4c-10.05-2.07-57.33-12.93-87-58-3.93-6-35.39-55.42-17-109a108.67,108.67,0,0,1,16-30L1410.45,0Z"/><path class="cls-3" d="M523.86,482.84c-2.22,35.88-16.62,150.55-22.15,196.25,0,0,0,0,0,.08C311.29,694,140.47,717.73,0,748.13V292l261-5.5a379.15,379.15,0,0,1,53,1c25.6,2.28,54.89,4.89,87,18.5,53.66,22.75,82.81,62.5,88.5,70.5C510.65,406.24,521.28,444.27,523.86,482.84Z"/><path class="cls-4" d="M1920,573.3V748.78c-143-31.14-317.8-55.39-512.85-70.24l.06-.07,40.46-46.8c1.64-2,3.84-4.41,6.61-7.11a99.12,99.12,0,0,1,10.05-8.56c21-15.56,43.65-19,56.67-20.33C1554.25,592.15,1708.28,582.36,1920,573.3Z"/><path class="cls-5" d="M823.71,664.46c-111.87,2.41-219.77,7.76-322,15.71C311.29,695,140.47,718.73,0,749.13v-.21c140.53-30.36,311.34-54.08,501.71-68.83C604,672.17,711.84,666.83,823.71,664.46Z"/></svg>